<?xml version="1.0" encoding="UTF-8"?><svg id="Layer_1" xmlns="http://www.w3.org/2000/svg" xmlns:xlink="http://www.w3.org/1999/xlink" viewBox="0 0 512 512"><defs><style>.cls-1,.cls-2{fill:none;}.cls-2{stroke:url(#New_Gradient_Swatch);stroke-linecap:round;stroke-miterlimit:10;stroke-width:20px;}</style><linearGradient id="New_Gradient_Swatch" x1="111.67" y1="274.42" x2="385.84" y2="274.42" gradientUnits="userSpaceOnUse"><stop offset="0" stop-color="#b87d2b"/><stop offset=".14" stop-color="#d3a452"/><stop offset=".29" stop-color="#eeca78"/><stop offset=".37" stop-color="#f9d987"/><stop offset=".47" stop-color="#eac46b"/><stop offset=".58" stop-color="#dcb051"/><stop offset=".7" stop-color="#d2a23e"/><stop offset=".83" stop-color="#cb9932"/><stop offset=".96" stop-color="#ca972f"/></linearGradient></defs><rect class="cls-1" x="-5.66" y="-1.23" width="518.02" height="518.02"/><path class="cls-2" d="M320.43,201.68c0,38.44-31.17,69.61-69.61,69.61s-69.61-31.17-69.61-69.61,31.17-69.61,69.61-69.61,69.61,31.17,69.61,69.61ZM244.97,195.88l-16.7.73,13.08,10.41-4.47,16.11,13.94-9.23,13.94,9.23-4.47-16.11,13.08-10.41-16.7-.73-5.86-15.66-5.86,15.66ZM341.82,281.5c7.62-3.1,12.8-10.27,13.35-18.48l1.82-27.15,14.37-23.11c4.34-6.98,4.32-15.83-.06-22.8l-14.49-23.03-1.96-27.14c-.59-8.2-5.81-15.35-13.45-18.41l-25.26-10.12-17.53-20.81c-5.3-6.29-13.72-9-21.7-6.99l-26.38,6.66-26.42-6.53c-7.98-1.97-16.39.78-21.66,7.1l-17.43,20.9-25.21,10.25c-7.62,3.1-12.8,10.27-13.35,18.48l-1.82,27.15-14.37,23.11c-4.34,6.98-4.32,15.83.06,22.8l14.49,23.03,1.96,27.14c.59,8.2,5.81,15.35,13.45,18.41l25.26,10.12,17.53,20.81c5.3,6.29,13.72,9,21.7,6.99l26.38-6.66,26.42,6.53c7.98,1.97,16.39-.78,21.66-7.1l17.43-20.9,25.21-10.25ZM177.5,290.74l-45.76,129.44,53.61-38.57,21.57,62.1,39.88-127.48M253.98,313.62l35.3,129.44,22.88-62.76,52.95,41.84-46.41-133.36"/></svg>